<svg id="Capa_1" data-name="Capa 1" xmlns="http://www.w3.org/2000/svg" viewBox="0 0 782.4 207"><defs><style>.cls-1{font-size:25.76px;font-family:charlotte;}.cls-2{font-size:7.73px;font-family:Montserrat-Regular, Montserrat;}.cls-3{letter-spacing:-0.01em;}.cls-4{letter-spacing:-0.02em;}.cls-5{fill:none;stroke:#000;stroke-miterlimit:10;stroke-width:0.5px;}.cls-6{fill:#3a1e01;}.cls-7{fill:#fff;}</style></defs><text class="cls-1" transform="translate(0.5 159.2)">Concetta</text><path d="M14.9,182.4c10.6,24.7,38,39.8,64.6,35.4s48-26.5,50.5-52.9c4-33.5-23.4-64.7-56.9-65.8a60.4,60.4,0,0,0-51,23.9l-.2-1.2,37.3,26.7-.2.2L20.9,123.2l-.7-.4.5-.8c15.5-22.6,46.9-32.2,72.4-21.8s42.7,37.7,39.1,65c-5.1,43.3-53.2,68.4-91.3,46.7a61.6,61.6,0,0,1-26.3-29.4Z" transform="translate(0 -12.8)"/><text class="cls-2" transform="translate(59.4 171)"><tspan class="cls-3">C</tspan><tspan x="5.5" y="0">a</tspan><tspan class="cls-4" x="10.1" y="0">k</tspan><tspan x="14.5" y="0">e boutique</tspan></text><ellipse class="cls-5" cx="78.2" cy="110.3" rx="3.4" ry="1.2" transform="translate(-44.8 153.7) rotate(-79.2)"/><ellipse class="cls-5" cx="73.6" cy="111.4" rx="0.8" ry="2.8" transform="translate(-59.6 88.7) rotate(-52.3)"/><ellipse class="cls-5" cx="82.1" cy="113" rx="2.8" ry="0.8" transform="translate(-28.2 14.5) rotate(-16.2)"/><circle class="cls-5" cx="81.7" cy="97.3" r="0.9"/><circle class="cls-5" cx="75.4" cy="96.1" r="0.9"/><ellipse class="cls-5" cx="59.8" cy="207.3" rx="3.4" ry="1.2" transform="matrix(0.19, -0.98, 0.98, 0.19, -155, 214.4)"/><ellipse class="cls-5" cx="64.4" cy="206.2" rx="0.8" ry="2.8" transform="translate(-138.1 118.2) rotate(-52.3)"/><ellipse class="cls-5" cx="55.9" cy="204.6" rx="2.8" ry="0.8" transform="translate(-54.7 10.8) rotate(-16.2)"/><circle class="cls-5" cx="56.3" cy="194.6" r="0.9"/><circle class="cls-5" cx="62.5" cy="195.8" r="0.9"/><ellipse class="cls-5" cx="109.8" cy="131" rx="3.4" ry="1.2" transform="matrix(0.83, -0.56, 0.56, 0.83, -54.7, 71.61)"/><ellipse class="cls-5" cx="105.8" cy="128.6" rx="0.8" ry="2.8" transform="translate(-15.5 1.7) rotate(-7.3)"/><ellipse class="cls-5" cx="110.6" cy="135.7" rx="0.8" ry="2.8" transform="translate(-61.6 154.3) rotate(-61.2)"/><circle class="cls-5" cx="112.3" cy="120.5" r="0.9"/><circle class="cls-5" cx="108.8" cy="115.3" r="0.9"/><ellipse class="cls-5" cx="28.2" cy="186.5" rx="3.4" ry="1.2" transform="translate(-100 35.3) rotate(-34.2)"/><ellipse class="cls-5" cx="32.2" cy="189" rx="0.8" ry="2.8" transform="translate(-23.8 -7.2) rotate(-7.3)"/><ellipse class="cls-5" cx="27.4" cy="181.9" rx="0.8" ry="2.8" transform="translate(-145.2 105.3) rotate(-61.2)"/><circle class="cls-5" cx="25.6" cy="171.4" r="0.9"/><circle class="cls-5" cx="29.2" cy="176.6" r="0.9"/><ellipse class="cls-5" cx="96.7" cy="199.6" rx="1.2" ry="3.4" transform="translate(-95.5 76.1) rotate(-34.2)"/><ellipse class="cls-5" cx="99.2" cy="195.6" rx="2.8" ry="0.8" transform="translate(-24.1 1.4) rotate(-7.3)"/><ellipse class="cls-5" cx="92.1" cy="200.4" rx="2.8" ry="0.8" transform="translate(-127.9 171.5) rotate(-61.2)"/><circle class="cls-5" cx="94.4" cy="189.3" r="0.9"/><circle class="cls-5" cx="99.7" cy="185.7" r="0.9"/><ellipse class="cls-5" cx="41.2" cy="118" rx="1.2" ry="3.4" transform="translate(-59.2 30.8) rotate(-34.2)"/><ellipse class="cls-5" cx="38.8" cy="122" rx="2.8" ry="0.8" transform="translate(-15.2 -6.9) rotate(-7.3)"/><ellipse class="cls-5" cx="45.9" cy="117.2" rx="2.8" ry="0.8" transform="translate(-78.9 88) rotate(-61.2)"/><circle class="cls-5" cx="43.6" cy="102.6" r="0.9"/><circle class="cls-5" cx="38.3" cy="106.2" r="0.9"/><path d="M511,28.7h.2l-.3.6-.6.5-.6.4-.8.3-.7.2h-.7a2.8,2.8,0,0,1-1.3-.3,1.8,1.8,0,0,1-.8-.7,3.1,3.1,0,0,1-.5-1,5,5,0,0,1-.2-1.2c0-.4.1-.7.1-1.1l.3-1a9.3,9.3,0,0,1,.5-1l.7-.7.8-.5,1-.2h.8a.9.9,0,0,1,.6.4,1,1,0,0,1,.4.5,1.4,1.4,0,0,1,.2.6,1.5,1.5,0,0,1,.1.7,2,2,0,0,1-.1.7h-.2V25c-.1-.2-.1-.4-.2-.6a.8.8,0,0,0-.2-.4l-.5-.3h-.6a1.2,1.2,0,0,0-.8.2l-.7.4-.6.7a3.6,3.6,0,0,0-.4.9l-.3,1a3.4,3.4,0,0,0-.1,1c0,.4.1.7.1,1a3.9,3.9,0,0,0,.4.9,1.9,1.9,0,0,0,.7.6,1.9,1.9,0,0,0,1,.3l1-.2.9-.4.8-.6A1.3,1.3,0,0,0,511,28.7Z" transform="translate(0 -12.8)"/><path d="M510.9,29.2V29h0a.8.8,0,0,1,.1-.4c0-.1.1-.2.2-.3l.3-.2h.4l.5.2.3.5a4.3,4.3,0,0,1,.1.5v.5h.5l.2-.3a.8.8,0,0,0,.2-.4h.3l-.3.5-.2.3-.4.2h-.4c-.1.2-.3.3-.4.4l-.4.2h-.4l-.4-.3c-.1-.1-.1-.3-.2-.4Zm1-1h-.3l-.3.2h.3a.1.1,0,0,1,.1.1h.2l-.2.3c-.1.1-.1.2-.1.4h.9v-.9c-.1-.1-.1-.3-.2-.4Zm.5,1.7h-.8c.1.1.1.2.2.2s.1.1.2.1h.2Z" transform="translate(0 -12.8)"/><path d="M514.4,28.8h0v.3a.4.4,0,0,0,.1.3v.2a.4.4,0,0,0,.1.3h.2a.3.3,0,0,0,.1-.2c0-.1.1-.2.1-.3s.1-.3.1-.4.1-.2.1-.3,0-.2.1-.2a.5.5,0,0,1,.2-.4l.3-.2.3.2v.3a.7.7,0,0,1,.1.5.6.6,0,0,0,.1.4c0,.1,0,.3.1.3l.2.2h.2l.3-.3a.8.8,0,0,0,.2-.4c.1-.1.2-.2.2-.3h.2c0,.2-.1.3-.2.5l-.3.4-.4.3-.4.2L516,30l-.3-.4c-.1-.2-.1-.4-.2-.5v-.2c0,.2-.1.3-.1.4s-.1.3-.1.4-.1.3-.2.4l-.2.3h-.7l-.2-.3a.6.6,0,0,1-.1-.4.9.9,0,0,1-.1-.5v-.3a.4.4,0,0,1,.1-.3.1.1,0,0,1,.1-.1h.4C514.4,28.6,514.4,28.7,514.4,28.8Z" transform="translate(0 -12.8)"/><path d="M519.2,28.9a.1.1,0,0,0-.1.1h-.2v-.2h-.5a.4.4,0,0,0-.1.3c-.1,0-.1.1-.1.2s.1.2.1.3.1.1.1.2l.3.2h.7l.4-.3c.2-.1.3-.3.4-.4s.1-.4.2-.5h.2c.1.1.1.1,0,.1l-.3.6-.4.5-.6.4h-1.2l-.4-.3-.2-.3a.6.6,0,0,1-.1-.4c0-.2,0-.3.1-.4l.2-.4a.5.5,0,0,1,.4-.2h.8c.1.1.1.2.2.2A.8.8,0,0,0,519.2,28.9Z" transform="translate(0 -12.8)"/><path d="M521,29.4a.8.8,0,0,0,.2.5h1l.4-.3.3-.4.3-.5h.2l-.3.6-.4.4-.4.3-.5.2h-1.1c-.1-.1-.3-.2-.3-.4a.8.8,0,0,1-.2-.5c0-.2.1-.3.1-.5l.3-.3.3-.3h1c0,.1.1.1.1.2v.3c0,.1-.1.2-.2.3H521Zm.5-.8h-.3c0,.1-.1.1-.1.2h.5c.1,0,.1-.1.1-.2a.1.1,0,0,0-.1-.1Z" transform="translate(0 -12.8)"/><path d="M527.6,30.4l.3-.4.3-.4.3-.5c0-.1.1-.3.1-.4h.3c-.1.2-.2.3-.2.5l-.3.5-.3.5-.4.3a.5.5,0,0,1-.5.3h-.5l-.4-.2c-.2-.2-.3-.3-.3-.5a2.5,2.5,0,0,1-.2-.7,1.7,1.7,0,0,0-.1-.7,2.9,2.9,0,0,1-.2.9l-.3.9-.4.6-.5.2-.6-.2-.4-.6-.3-.9V27.3a4.3,4.3,0,0,1,.1-.5v-.5h-1.9l-.3.2h-.2a.9.9,0,0,1,.5-.3h2a.4.4,0,0,1,.1-.3v-.2l.2-.2h.5c.1.1.1.1.1.2h0V26h1.8a.6.6,0,0,1,.1-.4v-.4l.2-.3h.7a.9.9,0,0,1-.1.5.9.9,0,0,1-.1.5h1.4l.6-.3.4-.4a.1.1,0,0,1,.1-.1h.2l-.6.6-.6.3h-1.5c0,.3-.1.6-.1.9v.8a.9.9,0,0,0,0,.7,1.9,1.9,0,0,0,.1.8.4.4,0,0,0,.1.3c0,.1.1.2.2.3h.6Zm-1.8-3.7H524a4.3,4.3,0,0,0-.1.5v.6c0,.2-.1.4-.1.6v1.5c0,.1.1.3.1.4s0,.3.1.4.1.3.2.3h.2l.3-.2.3-.6a6.4,6.4,0,0,0,.2-.7,3.1,3.1,0,0,0,.2-.8,2.9,2.9,0,0,0,.2-.9c.1-.2.1-.4.2-.6Z" transform="translate(0 -12.8)"/><path d="M529.2,29.5h.3c.1-.1.1-.2.2-.4l.2-.4a.4.4,0,0,0,.1-.3c.1-.1.1-.2.2-.2s.1-.1.1-.2h.4v1c0,.1-.1.2-.1.3s.1.3.1.4,0,.1.1.2a.1.1,0,0,0,.1.1.9.9,0,0,0,.6-.3,4.4,4.4,0,0,0,.6-1h.3a3,3,0,0,0-.4.8l-.5.5-.4.3h-.4l-.5-.2-.2-.3a.9.9,0,0,1-.1-.5v-.4l-.3.4-.4.3h-.6l-.2-.3v-.3c0-.1.1-.3.1-.4s.1-.3.2-.4l.4-.3h.6a.1.1,0,0,1,.1.1h-.2l-.2.2V29c0,.1-.1.2-.1.3v.2Z" transform="translate(0 -12.8)"/><path d="M508.2,32.9a13.9,13.9,0,0,0,26.6-4.1,13.8,13.8,0,0,0-13.2-15.2,14.1,14.1,0,0,0-11.8,5.5v-.3l8.6,6.2h0l-8.8-5.9-.2-.2h.1a14.3,14.3,0,0,1,16.8-5.1,14.5,14.5,0,0,1,9,15.1,14.2,14.2,0,0,1-27.2,4Z" transform="translate(0 -12.8)"/><path d="M518.6,32.6a.7.7,0,0,1,.6-.7l.5.2h-.1l-.4-.2a.6.6,0,0,0-.5.6.5.5,0,0,0,.5.5l.4-.2h.1l-.5.2A.6.6,0,0,1,518.6,32.6Z" transform="translate(0 -12.8)"/><path d="M520.7,32.6v.6h-.2V33c0,.1-.1.2-.3.2a.3.3,0,0,1-.3-.3.3.3,0,0,1,.3-.3h.3c0-.2-.1-.3-.2-.3l-.4.2h0l.4-.2A.4.4,0,0,1,520.7,32.6Zm-.2.3v-.2h-.3c-.2,0-.2.1-.2.2a.2.2,0,0,0,.2.2C520.4,33.1,520.5,33,520.5,32.9Z" transform="translate(0 -12.8)"/><path d="M521.3,32.7l-.2.2v.3H521V31.9h.1v.9l.6-.6h.1l-.4.4.5.6h-.2Z" transform="translate(0 -12.8)"/><path d="M522.9,32.7h-.8c0,.2.1.4.3.4h.4a.5.5,0,0,1-.4.2.5.5,0,1,1,.5-.5Zm-.8,0h.6c0-.2-.1-.4-.3-.4S522.1,32.5,522.1,32.7Z" transform="translate(0 -12.8)"/><path d="M524.5,32.7a.5.5,0,0,1-.4.5.5.5,0,0,1-.4-.2v.2h-.1V31.9h.1v.5a.5.5,0,0,1,.4-.2A.5.5,0,0,1,524.5,32.7Zm-.1,0c0-.2-.1-.4-.3-.4a.4.4,0,1,0,0,.8C524.3,33.1,524.4,32.9,524.4,32.7Z" transform="translate(0 -12.8)"/><path d="M524.7,32.7a.5.5,0,1,1,.5.5A.5.5,0,0,1,524.7,32.7Zm.8,0c0-.2-.1-.4-.3-.4a.4.4,0,1,0,0,.8C525.4,33.1,525.5,32.9,525.5,32.7Z" transform="translate(0 -12.8)"/><path d="M526.8,32.2v1h-.1V33a.5.5,0,0,1-.4.2.4.4,0,0,1-.4-.4v-.6h.1v.6a.3.3,0,0,0,.3.3c.2,0,.3-.2.3-.4v-.5Z" transform="translate(0 -12.8)"/><path d="M527.6,33.1c0,.1-.1.1-.2.1s-.2-.1-.2-.3v-.6h0V32h.1v.2h0v.6c0,.1,0,.2.1.2h.2Z" transform="translate(0 -12.8)"/><path d="M527.8,31.9h.2c0,.1,0,.1-.1.1A.1.1,0,0,1,527.8,31.9Zm.1.3h.1v1h-.1Z" transform="translate(0 -12.8)"/><path d="M529.2,32.2v1.3h-.1V33l-.4.2a.5.5,0,0,1,0-1l.4.2v-.2Zm-.1.5a.4.4,0,0,0-.4-.4c-.2,0-.3.2-.3.4s.1.4.3.4A.4.4,0,0,0,529.1,32.7Z" transform="translate(0 -12.8)"/><path d="M530.4,32.2v1h-.1V33a.5.5,0,0,1-.4.2.4.4,0,0,1-.4-.4v-.6h.2v.6a.3.3,0,0,0,.3.3c.2,0,.3-.2.3-.4v-.5Z" transform="translate(0 -12.8)"/><path d="M531.6,32.7h-.8a.4.4,0,0,0,.4.4h.3l-.3.2a.5.5,0,0,1-.5-.5.5.5,0,0,1,.4-.5.5.5,0,0,1,.5.5Zm-.8,0h.7c-.1-.2-.2-.4-.4-.4S530.8,32.5,530.8,32.7Z" transform="translate(0 -12.8)"/><path d="M522.7,17h0c-.2,0-.3-.5-.2-.9s.1-.4.2-.5.2-.3.3-.3.2.5.2.9S522.9,17,522.7,17Zm.3-1.6-.2.2c-.1.1-.1.3-.2.5s0,.8.1.8.3-.3.3-.7.1-.7,0-.8Z" transform="translate(0 -12.8)"/><path d="M522.2,16.9a1.3,1.3,0,0,1-.7-.4c-.1,0-.3-.3-.3-.5h.1l.7.4h0c.1.1.4.3.4.5h-.2Zm-.9-.9h0c0,.1.1.2.3.4a1.7,1.7,0,0,0,.6.4c.1-.1,0-.2-.3-.4h0Z" transform="translate(0 -12.8)"/><path d="M523.3,17.1c-.1,0-.2,0-.2-.1s-.1,0,0-.1.3-.3.5-.3.7-.2.8-.1h0c0,.2-.4.3-.5.4Zm.8-.5h-.5c-.3.1-.4.2-.4.3h.7c.3-.1.4-.2.4-.3Z" transform="translate(0 -12.8)"/><path d="M523.6,16.4h0c-.2,0-.2-.2-.2-.3s.1-.3.3-.2.2.1.2.3h0C523.9,16.3,523.8,16.4,523.6,16.4Zm0-.4a.1.1,0,0,0-.1.1c0,.1,0,.2.1.2h.2c0-.1,0-.2-.1-.2Z" transform="translate(0 -12.8)"/><path d="M522.2,16.1h-.1c-.1,0-.2-.2-.2-.3s.1-.1.1-.2h.2a.3.3,0,0,1,.3.3h0Zm0-.4H522l.2.2h.1c.1-.1,0-.2-.1-.2Z" transform="translate(0 -12.8)"/><path d="M518.4,39.4h0c-.1,0-.1,0-.2-.3v-.6h0a1.7,1.7,0,0,0,.2-.5l.3-.2c.2,0,.3.5.2.9a.8.8,0,0,1-.2.5C518.6,39.4,518.5,39.4,518.4,39.4Zm.3-1.5s-.1,0-.2.2a4.3,4.3,0,0,0-.1.5h0a1.1,1.1,0,0,0-.1.5v.2h.2c.1-.2.1-.4.2-.6s0-.7-.1-.7Z" transform="translate(0 -12.8)"/><path d="M520.1,38.8a1.1,1.1,0,0,1-.7-.3c-.1-.1-.4-.4-.3-.5h0c.2-.1.5.1.8.3s.4.4.3.5Zm-.9-.8h0s0,.2.3.4l.6.3s0-.2-.3-.4Z" transform="translate(0 -12.8)"/><path d="M517.3,38.3H517c0-.1.4-.3.5-.3h0c.3-.1.7-.2.8-.1h.1c-.1.2-.4.3-.5.4Zm.8-.5h-.6l-.4.2a.8.8,0,0,0,.7,0,.7.7,0,0,0,.4-.3Z" transform="translate(0 -12.8)"/><path d="M517.8,38.9h-.1c-.1,0-.2-.2-.2-.3h0c0-.2.2-.2.3-.2s.3.1.2.3A.2.2,0,0,1,517.8,38.9Zm-.2-.3a.3.3,0,0,0,.1.2h.2c0-.1,0-.2-.1-.2S517.6,38.5,517.6,38.6Z" transform="translate(0 -12.8)"/><path d="M519.2,39.2h0a.3.3,0,0,1-.3-.3c.1-.2.2-.3.4-.2s.2.1.2.3Zm0-.4c-.1,0-.1,0-.1.1s0,.2.1.2l.2-.2Z" transform="translate(0 -12.8)"/><path d="M529.6,21.5h-.2v-.3a1,1,0,0,1,.5-.4l.5-.3c.2,0,.3,0,.3.1s-.1.5-.5.7h0c-.1.2-.3.2-.5.3Zm1.1-1h-.2l-.5.3-.4.3v.3h.3l.5-.3c.3-.2.5-.5.4-.5Z" transform="translate(0 -12.8)"/><path d="M529.3,21.1h-.1a1.5,1.5,0,0,1-.2-.8c0-.1-.1-.5.1-.6h.1a2.2,2.2,0,0,1,.3.8h0c0,.1,0,.5-.1.6Zm-.2-1.3v.5a1,1,0,0,0,.2.7,1.2,1.2,0,0,0,.1-.5h0C529.3,20.1,529.2,19.8,529.1,19.8Z" transform="translate(0 -12.8)"/><path d="M530.8,22.4h-.5c-.3-.1-.6-.4-.6-.5s0-.1.1-.1.4,0,.5.1.7.3.7.5h-.2Zm-.4-.2h.5c0-.1-.3-.3-.6-.4s-.5-.2-.5-.1l.6.4Z" transform="translate(0 -12.8)"/><path d="M530.7,21.8h-.2c-.1-.2,0-.3.1-.4h.2l.2.2a.4.4,0,0,1-.1.3Zm0-.5h0c-.1,0-.1.1-.1.2h.2c.1,0,.1-.1.1-.2h-.2Z" transform="translate(0 -12.8)"/><path d="M529.9,20.6a.2.2,0,0,1-.2-.2c-.1-.1-.1-.3.1-.3s.3-.1.3,0,.1.3,0,.4h-.2Zm0-.5h-.1a.1.1,0,0,0,.2.2c.1,0,.1-.1,0-.2Z" transform="translate(0 -12.8)"/><path d="M510.7,34.4a.1.1,0,0,1-.1-.1c-.1-.1-.1-.2,0-.4l.5-.4h0a1.1,1.1,0,0,1,.9-.2c.1.2-.2.5-.6.8l-.5.2C510.9,34.4,510.8,34.4,510.7,34.4Zm.4-.8h0l-.4.4c0,.1-.1.2,0,.2h.2l.5-.2c.3-.3.5-.5.5-.6S511.5,33.4,511.1,33.6Z" transform="translate(0 -12.8)"/><path d="M512.3,35.1h-.1a3.4,3.4,0,0,1-.3-.8h0c0-.1,0-.5.1-.6h.2a1.5,1.5,0,0,1,.2.8.5.5,0,0,1-.1.6Zm-.3-.8a1.5,1.5,0,0,0,.3.7.7.7,0,0,0,0-.5c0-.4-.1-.7-.2-.7a1.2,1.2,0,0,0-.1.5Z" transform="translate(0 -12.8)"/><path d="M511.5,33.1h-.4c-.3-.1-.7-.4-.7-.5s0-.1.1-.2l.6.2c.3.1.6.3.6.5s0,.1-.1.1Zm-.9-.7h-.1l.6.5h.5c0-.1-.2-.3-.6-.4Z" transform="translate(0 -12.8)"/><path d="M510.7,33.5h-.3v-.2c0-.1.1-.1.1-.2h.4v.2c0,.1,0,.1-.1.2Zm-.1-.4h-.1v.2h.1Z" transform="translate(0 -12.8)"/><path d="M511.5,34.8h-.1a.1.1,0,0,1-.1-.1c-.1,0-.1-.1-.1-.2h.5a.3.3,0,0,1,.1.2l-.2.2Zm-.1-.4h.2c.1,0,0-.1,0-.1S511.5,34.3,511.4,34.4Z" transform="translate(0 -12.8)"/><path d="M527.5,37.6l-.3-.2-.3-.4c-.3-.3-.4-.7-.2-.9s.5.2.7.5.4.8.2.9Zm-.7-1.4h-.1c-.1.1,0,.4.3.7s.2.4.3.4h.2c.1,0,.1-.3-.2-.7S526.9,36.2,526.8,36.2Z" transform="translate(0 -12.8)"/><path d="M527.5,36.2,527,36h0l.8-.3c.1,0,.5,0,.6.2h0l-.8.3h-.1Zm.4-.5h-.1a1,1,0,0,0-.7.2.7.7,0,0,0,.5,0h0c.4,0,.7-.1.7-.2Z" transform="translate(0 -12.8)"/><path d="M525.8,37.7a.1.1,0,0,1-.1-.1c-.1-.1,0-.5.1-.6h0c.1-.3.4-.6.5-.6h.1a.6.6,0,0,1-.1.6,2.1,2.1,0,0,1-.5.7Zm.5-1.2a1.1,1.1,0,0,0-.4.6h0c-.2.3-.2.4-.1.4a1.1,1.1,0,0,0,.4-.5C526.4,36.7,526.4,36.5,526.3,36.5Z" transform="translate(0 -12.8)"/><path d="M526.6,37.7h-.2a.3.3,0,0,1,0-.4c.2-.1.3-.1.4.1s.1.3-.1.3A.1.1,0,0,1,526.6,37.7Zm-.1-.2c0,.1.1.1.2,0a.1.1,0,0,0,0-.2h-.2C526.4,37.3,526.4,37.4,526.5,37.5Z" transform="translate(0 -12.8)"/><path d="M527.8,36.9l-.2-.2h0c-.1,0-.1-.1-.1-.2h.2c0-.1.1-.1.2-.1h.1a.3.3,0,0,1,.1.2.3.3,0,0,1-.1.2Zm-.1-.2h.3a.1.1,0,0,0-.1-.1h-.2C527.6,36.6,527.7,36.6,527.7,36.7Z" transform="translate(0 -12.8)"/><path d="M514.7,18.7h-.3l-.4-.5c-.2-.3-.4-.7-.2-.9h.4l.3.5h0a.5.5,0,0,1,.3.5c.1.2,0,.3,0,.3Zm-.8-1.4h0c-.1.1,0,.4.2.8s.2.3.4.4.2.1.2,0v-.2a1.7,1.7,0,0,0-.2-.5h0c-.2-.1-.3-.3-.4-.4Z" transform="translate(0 -12.8)"/><path d="M513.5,19.1H513c.1-.2.5-.3.8-.3h.6v.2l-.8.2Zm.3-.4-.7.2c0,.1.2.1.5.1s.7-.1.7-.2Z" transform="translate(0 -12.8)"/><path d="M515.1,18.4H515c-.1-.1,0-.5.1-.6s.4-.6.5-.6h.1c.1.1,0,.5-.1.6h0c-.1.2-.4.6-.5.6Zm.5-1.2a2.5,2.5,0,0,0-.4.6c-.2.3-.2.4-.1.5s.3-.3.4-.6h0C515.7,17.4,515.7,17.2,515.6,17.2Z" transform="translate(0 -12.8)"/><path d="M514.8,17.6h-.2c0-.1-.1-.1,0-.2s0-.1.1-.2a.2.2,0,0,1,.3.1h0v.2c0,.1-.1.1-.1.2Zm0-.4h-.1c0,.1.1.1.2.1a.1.1,0,0,1,.1-.1h-.1C514.9,17.2,514.9,17.2,514.8,17.2Z" transform="translate(0 -12.8)"/><path d="M513.6,18.4h-.2c-.1,0-.1-.1-.1-.2h.2c0-.1.1-.1.2-.1h.1v.2a.3.3,0,0,1-.1.2Zm0-.4h-.1c-.1.1,0,.1,0,.2h.2a.1.1,0,0,1,.1-.1h-.1a.1.1,0,0,0-.1-.1Z" transform="translate(0 -12.8)"/><rect class="cls-6" x="257.8" y="35.2" width="524.6" height="35.62"/><circle class="cls-6" cx="737.5" cy="14.8" r="10.8"/><polygon class="cls-6" points="754.5 15.7 756.8 18 759.1 15.7 754.5 15.7"/><circle class="cls-7" cx="737.5" cy="10.5" r="3.6"/><path class="cls-7" d="M744.5,33.5c-1.1,2.3-3.2,3.7-7,3.7s-6.4-1.8-7.1-3.7,3.2-6.5,7.1-6.5S745.7,30.9,744.5,33.5Z" transform="translate(0 -12.8)"/></svg>